<svg width="21" height="20" viewBox="0 0 21 20" fill="none" xmlns="http://www.w3.org/2000/svg">
<g clip-path="url(#clip0_37_643)">
<path d="M15.955 10.6358C15.975 9.0775 16.7917 7.63834 18.1192 6.82251C17.2783 5.62084 15.9192 4.88667 14.4533 4.84084C12.9108 4.67917 11.4158 5.76334 10.63 5.76334C9.82917 5.76334 8.61917 4.85667 7.31583 4.88334C5.60167 4.93917 4.04167 5.89 3.2075 7.38917C1.43167 10.4642 2.75583 14.9842 4.4575 17.47C5.30917 18.6875 6.30333 20.0467 7.60583 19.9992C8.88 19.9467 9.35583 19.1867 10.8933 19.1867C12.4167 19.1867 12.8633 19.9992 14.1917 19.9683C15.5583 19.9458 16.42 18.7458 17.2417 17.5167C17.8533 16.6492 18.3242 15.6908 18.6358 14.6767C17.0125 13.99 15.9567 12.3992 15.955 10.6358Z" fill="white"/>
<path d="M13.4458 3.20583C14.1908 2.31083 14.5583 1.16083 14.4692 0C13.3308 0.12 12.2783 0.664167 11.5233 1.52417C10.7775 2.37333 10.3992 3.48333 10.4725 4.61167C11.6267 4.62333 12.7225 4.105 13.4458 3.20583Z" fill="white"/>
</g>
<defs>
<clipPath id="clip0_37_643">
<rect width="20" height="20" fill="white" transform="translate(0.5)"/>
</clipPath>
</defs>
</svg>
