<svg width="21" height="20" viewBox="0 0 21 20" fill="none" xmlns="http://www.w3.org/2000/svg">
<g clip-path="url(#clip0_37_649)">
<path d="M10.5 20C16.0228 20 20.5 15.5228 20.5 10C20.5 4.47715 16.0228 0 10.5 0C4.97715 0 0.5 4.47715 0.5 10C0.5 15.5228 4.97715 20 10.5 20Z" fill="white"/>
<path d="M13.014 10.3915H11.2296V16.9286H8.52613V10.3915H7.24035V8.09404H8.52613V6.60736C8.52613 5.54422 9.03114 3.87946 11.2537 3.87946L13.2562 3.88783V6.11786H11.8033C11.5649 6.11786 11.2298 6.23694 11.2298 6.74409V8.09618H13.2502L13.014 10.3915Z" fill="#3B5998"/>
</g>
<defs>
<clipPath id="clip0_37_649">
<rect width="20" height="20" fill="white" transform="translate(0.5)"/>
</clipPath>
</defs>
</svg>
