<svg width="69" height="69" viewBox="0 0 69 69" fill="none" xmlns="http://www.w3.org/2000/svg">
<path fill-rule="evenodd" clip-rule="evenodd" d="M34.1924 68.5283C53.0509 68.5283 68.3387 53.2405 68.3387 34.382C68.3387 15.5235 53.0509 0.235664 34.1924 0.235664C15.3338 0.235664 0.0459957 15.5235 0.0459957 34.382C0.0459957 53.2405 15.3338 68.5283 34.1924 68.5283ZM44.8448 16.1425C45.3633 14.3006 43.576 13.2115 41.9436 14.3745L19.1562 30.6081C17.3859 31.8693 17.6643 34.382 19.5745 34.382H25.575V34.3355H37.2698L27.7408 37.6977L23.5399 52.6216C23.0214 54.4634 24.8086 55.5525 26.4411 54.3895L49.2285 38.156C50.9989 36.8948 50.7202 34.382 48.8102 34.382H39.7106L44.8448 16.1425Z" fill="#02AA14"/>
</svg>
